<svg width="16" height="16" viewBox="0 0 16 16" fill="none" xmlns="http://www.w3.org/2000/svg">
<rect width="16" height="16" fill="white"/>
<g clip-path="url(#clip0_0_2)">
<g clip-path="url(#clip1_0_2)">
<path fill-rule="evenodd" clip-rule="evenodd" d="M13.5305 6.29766C12.3772 6.79173 11.225 7.38561 10.3344 7.92619C9.40911 8.45423 8.74521 8.92901 7.77042 8.89438C6.79564 8.92901 6.13178 8.45427 5.2065 7.92623C4.3158 7.38561 3.16368 6.79173 2.0103 6.29766C0.967583 5.81983 0.626236 4.88235 1.58975 3.36051C2.50793 1.95405 4.73101 -0.0366727 7.77042 0.0439539C10.8098 -0.0366727 13.0329 1.95405 13.9511 3.36051C14.9144 4.8823 14.5731 5.81974 13.5304 6.29724L13.5305 6.29766Z" fill="black"/>
<path fill-rule="evenodd" clip-rule="evenodd" d="M12.8598 6.09962C11.8408 6.5402 10.8228 7.06977 10.0358 7.5518C9.21828 8.02267 8.6317 8.44603 7.77042 8.41515C6.90915 8.44603 6.3226 8.0227 5.50506 7.55184C4.71808 7.06977 3.70012 6.5402 2.68105 6.09962C1.75976 5.67353 1.45816 4.83756 2.30947 3.48052C3.12073 2.22636 5.08494 0.451202 7.77042 0.523098C10.4559 0.451202 12.4201 2.22636 13.2314 3.48052C14.0825 4.83753 13.781 5.67346 12.8597 6.09925L12.8598 6.09962Z" fill="url(#paint0_linear_0_2)"/>
<path d="M5.35365 3.77035C4.89153 3.14313 4.37325 2.43952 3.79369 1.60033C3.64064 1.62611 3.48855 1.65196 3.33624 1.6779C3.9155 2.5167 4.4335 3.22005 4.8956 3.84706C6.02057 5.37376 6.7787 6.40334 7.05868 7.59402C7.21101 7.57116 7.36444 7.54778 7.51896 7.52392C7.23804 6.33028 6.47878 5.29955 5.35322 3.7706L5.35365 3.77035Z" fill="black"/>
<path d="M10.2214 3.77035C10.6835 3.14313 11.2018 2.43952 11.7814 1.60033C11.9344 1.62611 12.0865 1.65196 12.2388 1.6779C11.6596 2.5167 11.1416 3.22005 10.6795 3.84706C9.55451 5.37376 8.79638 6.40334 8.51639 7.59402C8.36406 7.57116 8.21063 7.54778 8.05611 7.52392C8.33704 6.33028 9.09629 5.29955 10.2219 3.7706L10.2214 3.77035Z" fill="black"/>
<path d="M7.6254 0.373383C7.7806 0.374904 7.93486 0.376638 8.08936 0.378432C7.93486 1.7301 8.07485 6.41206 7.98457 7.63188C7.90845 7.6325 7.83205 7.63303 7.75536 7.63349C7.67687 7.63396 7.59808 7.63434 7.51899 7.63465C7.60974 6.41175 7.51899 1.57344 7.6254 0.373383Z" fill="black"/>
</g>
<g clip-path="url(#clip2_0_2)">
<path d="M4.09137 7.22716H11.611V8.06267L8.68667 11.8225V16L7.01565 15.1645V11.8225L4.09137 8.06267V7.22716" fill="black"/>
<path d="M11.3658 7.50648V8.00298L8.45643 11.7704V15.6027L7.26029 14.9936V11.7704L4.35889 8.00298V7.50648H11.3658Z" fill="url(#paint1_linear_0_2)"/>
</g>
</g>
<defs>
<linearGradient id="paint0_linear_0_2" x1="1.80701" y1="0.520981" x2="1.80701" y2="8.41674" gradientUnits="userSpaceOnUse">
<stop stop-color="#E1E1E1"/>
<stop offset="1" stop-color="#00AF90"/>
</linearGradient>
<linearGradient id="paint1_linear_0_2" x1="14.4832" y1="-1.23724" x2="-10.0422" y2="-8.93732" gradientUnits="userSpaceOnUse">
<stop stop-color="white"/>
<stop offset="1"/>
</linearGradient>
<clipPath id="clip0_0_2">
<rect width="13.5352" height="16" fill="white" transform="translate(1)"/>
</clipPath>
<clipPath id="clip1_0_2">
<rect width="13.5352" height="8.89817" fill="white" transform="translate(1)"/>
</clipPath>
<clipPath id="clip2_0_2">
<rect width="7.51958" height="8.77285" fill="white" transform="translate(4.09137 7.22716)"/>
</clipPath>
</defs>
</svg>
